<svg viewBox="0 0 1024 1024" width="32" height="32" xmlns="http://www.w3.org/2000/svg" xmlns:xlink="http://www.w3.org/1999/xlink">
    <path fill="currentColor" d="M187.5 130.5Q171 147 171 171v682q0 24 16.5 40.5T228 910h199q11 0 19.5-8t8.5-20-8.5-20.5T427 853H228V171h568v256q0 11 8.5 19.5T825 455t20-8.5 8-19.5V171q0-24-16.5-40.5T796 114H228q-24 0-40.5 16.5zM654 887q-39-23-62-62t-23-85.5 23-85.5 62-62 85.5-23 85.5 23 62 62 23 85.5-23 85.5-62 62-85 23q-47 0-86-23zM853.5 936.5q52.5-30.5 83-83t30.5-114-30.5-114-83-83-114-30.5-114 30.5-83 83-30.5 114 30.5 114 83 83T740 967q61 0 113.5-30.5zM764 742v24h37q10 0 17 7.5t7 17.5-7 17-17 7h-37v25q0 10-7 17t-17.5 7-17.5-7-7-17v-25h-36q-10 0-17.5-7t-7.5-17 7.5-17.5 17.5-7.5h36v-24h-36q-10 0-17.5-7t-7.5-17 7.5-17.5 17.5-7.5h18l-26-26q-7-7-7-17t7.5-17 17.5-7 17 7l34 34 33-34q7-7 17-7t17.5 7 7.5 17-7 17l-26 26h19q10 0 17 7.5t7 17.5-7 17-17 7zM292.5 292.5Q284 301 284 313t8.5 20 20.5 8h341q12 0 20.5-8t8.5-20-8.5-20.5T654 284H313q-12 0-20.5 8.5zM292.5 406.5q-8.5 8.5-8.5 20t8.5 20 20.5 8.5h227q12 0 20.5-8.5t8.5-20-8.5-20T540 398H313q-12 0-20.5 8.5zM292.5 520.5q-8.5 8.5-8.5 20t8.5 20 20.5 8.5h114q11 0 19.5-8.5t8.5-20-8.5-20T427 512H313q-12 0-20.5 8.5z" />
</svg>