<svg viewBox="0 0 1024 1024" width="32" height="32" xmlns="http://www.w3.org/2000/svg" xmlns:xlink="http://www.w3.org/1999/xlink">
    <path fill="currentColor" d="M114 413.5q26 15.5 41.5 41.5t15.5 57-15.5 57-41.5 41.5T57 626v170q0 24 16.5 40.5T114 853h796q24 0 40.5-16.5T967 796V626q-31 0-57-15.5T868.5 569 853 512t15.5-57 41.5-41.5 57-15.5V228q0-24-16.5-40.5T910 171H114q-24 0-40.5 16.5T57 228v170q31 0 57 15.5zM654 398q12 0 20.5 8.5t8.5 20-8.5 20T654 455H370q-12 0-20.5-8.5t-8.5-20 8.5-20 20.5-8.5zM654 569q12 0 20.5 8.5t8.5 20-8.5 20T654 626H370q-12 0-20.5-8.5t-8.5-20 8.5-20 20.5-8.5z" />
</svg>