<svg viewBox="0 0 1024 1024" width="32" height="32" xmlns="http://www.w3.org/2000/svg" xmlns:xlink="http://www.w3.org/1999/xlink">
    <path fill="currentColor" d="M612 54q-14 27-41 43.5T512 114 453 97.5 412 53v0q-72 16-135 52.5T165 196q17 26 17.5 57.5T167 313t-43.5 43T65 370q-22 69-22 142t22 142q31-1 58.5 14t43.5 43 15.5 59.5T165 828q49 54 112 90.5T412 971v0q14-28 41-44.5t59-16.5 59 16.5 41 44.5v0q72-16 135-52.5T859 828q-17-26-17.5-57.5T857 711t43.5-43 58.5-14q22-69 22-142t-22-142q-31 1-58.5-14T857 313t-15.5-59.5T859 196q-49-54-112-90.5T612 53zM569 413.5q26 15.5 41.5 41.5t15.5 57-15.5 57-41.5 41.5-57 15.5-57-15.5-41.5-41.5-15.5-57 15.5-57 41.5-41.5 57-15.5 57 15.5z" />
</svg>